<svg width="71" height="71" viewBox="0 0 71 71" fill="none" xmlns="http://www.w3.org/2000/svg">
<path d="M35.5 71C55.1061 71 71 55.1061 71 35.5C71 15.8939 55.1061 0 35.5 0C15.8939 0 0 15.8939 0 35.5C0 55.1061 15.8939 71 35.5 71Z" fill="black"/>
<path d="M16.5 29C19.5376 29 22 26.5376 22 23.5C22 20.4624 19.5376 18 16.5 18C13.4624 18 11 20.4624 11 23.5C11 26.5376 13.4624 29 16.5 29Z" fill="white"/>
<path d="M35.5 18C38.5376 18 41 15.5376 41 12.5C41 9.46243 38.5376 7 35.5 7C32.4624 7 30 9.46243 30 12.5C30 15.5376 32.4624 18 35.5 18Z" fill="white"/>
<path d="M55.5 29C58.5376 29 61 26.5376 61 23.5C61 20.4624 58.5376 18 55.5 18C52.4624 18 50 20.4624 50 23.5C50 26.5376 52.4624 29 55.5 29Z" fill="white"/>
<path d="M55.5 52C58.5376 52 61 49.5376 61 46.5C61 43.4624 58.5376 41 55.5 41C52.4624 41 50 43.4624 50 46.5C50 49.5376 52.4624 52 55.5 52Z" fill="white"/>
<path d="M35.5 63C38.5376 63 41 60.5376 41 57.5C41 54.4624 38.5376 52 35.5 52C32.4624 52 30 54.4624 30 57.5C30 60.5376 32.4624 63 35.5 63Z" fill="white"/>
<path d="M16.5 52C19.5376 52 22 49.5376 22 46.5C22 43.4624 19.5376 41 16.5 41C13.4624 41 11 43.4624 11 46.5C11 49.5376 13.4624 52 16.5 52Z" fill="white"/>
<path d="M26 47V23H36.6498C38.7797 23 40.6101 23.3543 42.141 24.0629C43.6941 24.7714 44.8922 25.8 45.7353 27.1486C46.5784 28.4743 47 30.0514 47 31.88C47 33.6857 46.5784 35.2514 45.7353 36.5771C44.8922 37.9029 43.6941 38.9314 42.141 39.6629C40.6101 40.3714 38.7797 40.7257 36.6498 40.7257H29.6609L32.5895 37.7771V47H26ZM32.5895 38.4971L29.6609 35.3771H36.2504C37.626 35.3771 38.6466 35.0686 39.3122 34.4514C40 33.8343 40.3439 32.9771 40.3439 31.88C40.3439 30.76 40 29.8914 39.3122 29.2743C38.6466 28.6571 37.626 28.3486 36.2504 28.3486H29.6609L32.5895 25.2286V38.4971Z" fill="white"/>
</svg>
